<svg width="30" height="104" viewBox="0 0 200 204" fill="none" xmlns="http://www.w3.org/2000/svg">
<g clip-path="url(#clip0_6191_24019)">
<rect width="200" height="204" fill="#2196F3"/>
<g clip-path="url(#clip1_6191_24019)">
<path fill-rule="evenodd" clip-rule="evenodd" d="M109.663 17.6995C110.796 20.0098 112.039 22.262 113.389 24.45C116.061 18.5922 119.047 12.8763 122.338 7.32806C123.014 6.23849 125.388 3.25598 125.388 3.25598L130.136 6.09658C130.136 6.09658 126.752 10.9143 125.328 13.4711C123.064 17.3916 121.003 21.4252 119.156 25.5574C119.326 25.5289 119.468 25.51 119.593 25.4935C119.771 25.4697 119.912 25.451 120.046 25.4155C122.954 24.6747 125.814 23.7655 128.616 22.6928C130.874 19.6068 132.767 16.2708 134.254 12.7495C131.464 15.7079 129.008 18.9646 126.93 22.4571C126.566 20.3717 126.862 18.2262 127.771 16.3141C128.955 13.6442 130.853 11.352 133.255 9.6852C134.427 8.9059 135.711 8.31181 137.065 7.92216C137.121 7.90051 137.178 7.89089 137.239 7.89329C137.299 7.8957 137.356 7.91254 137.409 7.939C137.462 7.96545 137.51 8.00394 137.546 8.04964C137.582 8.09534 137.609 8.14825 137.623 8.20598C137.922 9.44227 137.975 10.7267 137.777 11.9822C137.255 14.7891 135.932 17.3868 133.967 19.4625C133.304 20.1745 132.572 20.8191 131.783 21.3915C136.12 19.2124 140.32 16.7783 144.365 14.0988L150.116 16.7013L149.712 17.115L148.692 17.9448C141.907 23.1522 134.225 27.0703 126.02 29.5092C127.488 29.5982 128.931 29.9061 130.307 30.4208C133.085 31.4551 135.543 33.2037 137.429 35.4863C138.27 36.5494 138.922 37.7496 139.35 39.0364C139.374 39.0893 139.384 39.1471 139.379 39.2048C139.374 39.2625 139.355 39.3178 139.326 39.3683C139.297 39.4188 139.257 39.4597 139.206 39.491C139.156 39.5199 139.1 39.5391 139.042 39.5439C137.693 39.8181 136.31 39.871 134.946 39.6979C131.978 39.2336 129.181 38.0118 126.829 36.1477C125.044 34.8104 123.661 33.0089 122.829 30.9404C126.388 33.1436 130.167 34.9764 134.104 36.4099C131.045 33.9325 127.731 31.7894 124.217 30.0167C122.021 30.6205 119.791 31.1544 117.511 31.5802C117.164 31.6066 116.832 31.7317 116.556 31.9409C116.279 32.1526 116.072 32.4388 115.957 32.7659C114.165 37.1098 112.621 41.5138 111.209 45.9635L108.681 54.5815C105.838 65.4725 103.755 76.5462 102.449 87.7258C102.252 89.3756 102.098 91.0264 101.944 92.6769C101.865 93.5241 101.786 94.3713 101.701 95.2181C102.151 94.9127 102.524 94.5086 102.793 94.0348C108.178 85.5996 114.555 77.8354 121.785 70.9059C123.341 64.6066 124.14 58.1461 124.159 51.6591C121.645 58.0932 119.882 64.7918 118.901 71.6275C116.902 68.5175 115.914 64.8736 116.063 61.1863C116.152 56.2171 117.672 51.3801 120.443 47.2527C121.811 45.3045 123.493 43.5919 125.417 42.1873C125.496 42.1175 125.588 42.067 125.686 42.0358C125.787 42.0045 125.891 41.9949 125.994 42.0069C126.097 42.0189 126.196 42.0526 126.285 42.1055C126.374 42.1584 126.451 42.2306 126.511 42.3148C127.822 44.1355 128.784 46.1824 129.347 48.3519C130.422 53.136 130.052 58.1268 128.279 62.6992C127.699 64.2145 126.963 65.6649 126.083 67.0311C131.911 61.9921 138.234 57.5496 144.955 53.7734C149.051 48.1956 152.488 42.1656 155.198 35.8038C150.352 40.9438 146.08 46.5961 142.463 52.6597C141.837 49.0446 142.342 45.3261 143.911 42.0069C145.979 37.3648 149.284 33.3793 153.467 30.4785C155.504 29.1172 157.743 28.0829 160.1 27.4119C160.194 27.3734 160.298 27.3541 160.399 27.3589C160.5 27.3638 160.601 27.3902 160.692 27.4359C160.783 27.4816 160.863 27.5466 160.928 27.6259C160.993 27.7053 161.038 27.7991 161.062 27.8977C161.575 30.0528 161.669 32.2873 161.334 34.4785C160.425 39.3659 158.121 43.8854 154.701 47.5005C153.743 48.5227 152.709 49.468 151.603 50.329C157.657 47.4115 163.932 44.9726 170.368 43.0363C171.886 42.5745 174.902 42.0069 174.902 42.0069L176.836 46.9545C169.647 49.1096 162.575 51.6351 155.648 54.519C151.304 56.5466 147.105 58.8677 143.078 61.4677L139.187 64.1544C141.133 64.0414 143.078 64.3444 144.897 65.0419C147.701 66.0642 150.184 67.8128 152.089 70.1074C152.928 71.1681 153.575 72.3707 153.998 73.6575C154.02 73.7104 154.027 73.7682 154.022 73.8259C154.018 73.8836 153.998 73.9389 153.969 73.987C153.941 74.0376 153.9 74.0784 153.852 74.1097C153.803 74.141 153.751 74.1602 153.693 74.1674C152.343 74.4392 150.96 74.4873 149.597 74.3093C146.629 73.8499 143.834 72.6281 141.489 70.7592C139.697 69.4243 138.309 67.6228 137.477 65.5518C141.041 67.7575 144.825 69.5878 148.764 71.0214C145.635 68.5007 142.251 66.3191 138.662 64.5104L135.314 66.8194C131.851 69.4796 128.541 72.3322 125.402 75.3652C124.607 76.1289 123.831 76.918 122.986 77.7777C122.559 78.2123 122.115 78.665 121.641 79.1415C122.707 79.2369 123.729 79.3337 124.724 79.4279C126.687 79.6137 128.541 79.7891 130.4 79.9232C141.445 80.8011 152.548 80.5942 163.552 79.3074C167.523 73.886 170.852 68.0292 173.476 61.8478C168.62 66.9589 164.343 72.5824 160.716 78.6219C160.091 75.0069 160.596 71.2884 162.164 67.9691C164.23 63.3246 167.535 59.3367 171.72 56.4408C173.755 55.0794 175.989 54.0451 178.344 53.3741C178.438 53.3332 178.541 53.314 178.645 53.3164C178.748 53.3188 178.852 53.3452 178.943 53.3909C179.034 53.4366 179.116 53.504 179.181 53.5833C179.246 53.6627 179.292 53.7565 179.316 53.8575C179.821 56.0102 179.91 58.2399 179.578 60.4263C178.678 65.3137 176.379 69.8356 172.954 73.4459C170.852 75.7332 168.329 77.5973 165.524 78.9394C173.471 77.3616 181.319 75.3171 189.026 72.8205L190 78.4199C182.693 80.7578 175.263 82.6988 167.744 84.231C169.423 84.5052 171.073 84.9357 172.67 85.5226C177.555 87.3025 181.885 90.3355 185.216 94.3186C186.671 96.1514 187.794 98.2223 188.54 100.438C188.576 100.531 188.591 100.63 188.583 100.731C188.574 100.83 188.542 100.926 188.492 101.012C188.439 101.097 188.369 101.171 188.285 101.224C188.201 101.277 188.105 101.311 188.004 101.323C185.659 101.784 183.253 101.869 180.882 101.57C175.725 100.789 170.861 98.6793 166.77 95.4514C163.66 93.1256 161.25 89.9939 159.802 86.3957C166.003 90.2176 172.581 93.3902 179.434 95.8652C174.173 91.6031 168.471 87.9158 162.424 84.8684C147.699 86.4679 132.827 86.1816 118.175 84.0169C117.917 83.976 117.653 84.0049 117.41 84.1035C117.167 84.2021 116.955 84.3633 116.799 84.5725C116.437 85.0482 116.06 85.5092 115.683 85.9711L115.683 85.9713C115.158 86.6141 114.632 87.2586 114.141 87.9471C108.765 95.3288 103.803 103.004 99.2813 110.934C99.2236 111.035 99.1346 111.112 99.0264 111.158C98.9182 111.201 98.8003 111.211 98.6872 111.182L90.2232 109.383C90.0789 109.356 89.9418 109.298 89.8215 109.214C89.7012 109.13 89.6002 109.022 89.5233 108.897C85.3429 101.683 80.7874 94.6938 75.8735 87.9567C75.4638 87.4051 75.032 86.8784 74.5979 86.349C74.1273 85.7749 73.6541 85.1977 73.2037 84.5821C73.0473 84.3729 72.8357 84.2117 72.5927 84.1131C72.3522 84.0145 72.0876 83.9856 71.8279 84.0265C57.4108 86.1552 42.7845 86.4655 28.2905 84.9501C22.287 87.9759 16.6275 91.6391 11.4129 95.8772C18.2654 93.4022 24.8438 90.2297 31.0445 86.4077C29.5965 90.006 27.1865 93.1376 24.0765 95.4635C19.9828 98.6889 15.1194 100.798 9.96253 101.582C7.59096 101.883 5.18571 101.799 2.84059 101.335C2.73957 101.325 2.64337 101.289 2.55918 101.236C2.475 101.183 2.40284 101.111 2.35233 101.024C2.29941 100.938 2.26815 100.842 2.26093 100.741C2.25131 100.642 2.26815 100.541 2.30422 100.447C3.04985 98.2319 4.1731 96.161 5.62827 94.3282C8.94511 90.3499 13.2553 87.3121 18.1259 85.5226C19.5931 85.0007 21.1012 84.6038 22.6358 84.3392C14.9895 82.8239 7.43462 80.8925 0 78.5522L0.974123 72.9528C9.09423 75.5577 17.3683 77.6647 25.7458 79.2617C22.7681 77.9172 20.0934 75.9858 17.8878 73.5806C14.4627 69.9703 12.1609 65.446 11.2638 60.5586C10.9342 58.3722 11.0208 56.1425 11.5259 53.9898C11.55 53.8912 11.5957 53.7974 11.6606 53.7156C11.7256 53.6363 11.8049 53.5689 11.8988 53.5232C11.9926 53.4775 12.0936 53.451 12.197 53.4486C12.3004 53.4462 12.4014 53.4655 12.4977 53.5064C14.8524 54.1822 17.0869 55.2165 19.1217 56.5731C23.3068 59.469 26.614 63.4569 28.6777 68.1014C30.246 71.4182 30.7511 75.1391 30.1257 78.7542C26.513 72.6834 22.2413 67.0263 17.3899 61.8862C20.0285 68.1062 23.379 74.0015 27.3717 79.4542C38.0847 80.6351 48.8866 80.8059 59.6333 79.9641C61.4923 79.8306 63.3293 79.6562 65.276 79.4714L65.2774 79.4712C66.2771 79.3763 67.3057 79.2786 68.3811 79.1824C67.1075 77.8889 66.0021 76.7859 64.9123 75.6985L64.6193 75.4061C61.4853 72.3683 58.1757 69.5133 54.7073 66.8603L53.2714 65.879C52.4151 67.8248 51.0754 69.5205 49.3773 70.8025C47.0298 72.669 44.2349 73.8932 41.2692 74.3526C39.903 74.5306 38.5152 74.4825 37.1635 74.2107C37.1081 74.2035 37.0528 74.1843 37.0047 74.153C36.9566 74.1217 36.9157 74.0808 36.8869 74.0303C36.858 73.9822 36.8411 73.9269 36.8387 73.8692C36.8339 73.8139 36.846 73.7561 36.8676 73.7032C37.2909 72.4188 37.9379 71.2162 38.7798 70.1531C40.6679 67.8705 43.1237 66.1243 45.9017 65.0876C47.4507 64.5056 49.0887 64.1977 50.7435 64.176L46.8855 61.5134C42.8615 58.911 38.6619 56.5875 34.3156 54.5647C27.3885 51.6784 20.3171 49.1529 13.1278 47.0002L15.0616 42.0526C15.0616 42.0526 18.0754 42.6202 19.5955 43.082C26.7016 45.2168 33.6052 47.9652 40.2322 51.2931C38.6077 50.3549 37.1993 49.0779 36.1051 47.5438C32.6825 43.9287 30.3807 39.4068 29.4691 34.5218C29.1371 32.3306 29.2285 30.0961 29.7433 27.941C29.7673 27.8424 29.813 27.7486 29.878 27.6692C29.9429 27.5899 30.0223 27.5249 30.1137 27.4792C30.2051 27.4311 30.3061 27.4071 30.4071 27.4022C30.5081 27.3974 30.6116 27.4167 30.7054 27.4552C33.0649 28.1262 35.3042 29.1605 37.3414 30.5218C41.5242 33.4202 44.829 37.4081 46.8975 42.0502C48.4657 45.367 48.9708 49.0879 48.3454 52.703C44.7279 46.6346 40.4562 40.9799 35.6097 35.835C37.8847 42.238 41.0677 48.2819 45.0583 53.786C52.6728 58.0678 59.776 63.1998 66.2309 69.0852C64.665 67.1585 63.4191 64.9914 62.5388 62.6704C60.7685 58.098 60.3957 53.1047 61.4709 48.3231C62.0313 46.1535 62.9934 44.1043 64.3066 42.2859C64.3668 42.2017 64.4437 42.1296 64.5327 42.0766C64.6217 42.0237 64.7204 41.9901 64.8238 41.978C64.9272 41.966 65.033 41.9756 65.1316 42.0069C65.2303 42.0382 65.3241 42.0887 65.401 42.1584C67.3276 43.5631 69.0065 45.2756 70.3751 47.2239C73.1459 51.3537 74.666 56.1906 74.755 61.1575C74.9066 64.8471 73.9156 68.4911 71.9193 71.5986C70.9379 64.7653 69.1749 58.0643 66.6614 51.6303C66.7071 58.4492 67.5513 65.2392 69.1773 71.8608C75.9673 78.5474 81.9804 85.9772 87.1012 94.0083C87.3706 94.4797 87.7434 94.8862 88.1931 95.1917C88.1082 94.3441 88.0288 93.4961 87.9494 92.6481L87.9493 92.647L87.9493 92.6468L87.9493 92.6466L87.9493 92.6464L87.9492 92.6462L87.9492 92.646C87.7948 90.997 87.6404 89.3476 87.4451 87.6993C86.1487 76.5198 84.0706 65.446 81.2252 54.5551L78.6852 45.9371C77.2252 41.4874 75.6811 37.0834 73.9373 32.7395C73.8242 32.4124 73.615 32.1237 73.3383 31.9145C73.0617 31.7028 72.7298 31.5777 72.3835 31.5537C70.3102 31.1592 68.2657 30.6878 66.2477 30.1442C62.8274 31.8712 59.602 33.9613 56.6339 36.3834C60.5689 34.9499 64.3475 33.1171 67.9097 30.9139C67.0775 32.98 65.6945 34.7815 63.9098 36.1213C61.5575 37.9829 58.7602 39.2072 55.7921 39.6714C54.4259 39.8446 53.0429 39.7917 51.696 39.5175C51.6382 39.5127 51.5829 39.4958 51.5324 39.4645C51.4843 39.4333 51.441 39.3924 51.4121 39.3419C51.3809 39.2914 51.364 39.236 51.3592 39.1783C51.3544 39.1206 51.3664 39.0629 51.3881 39.01C51.8162 37.7256 52.468 36.5229 53.3099 35.4598C55.2148 33.17 57.6922 31.4214 60.4919 30.3944C61.6609 29.959 62.8827 29.6728 64.1238 29.5429C55.8474 27.1112 48.0953 23.1714 41.262 17.9184C40.9156 17.6562 45.5578 14.106 45.5578 14.106C50.4452 17.2641 55.5492 20.0759 60.8335 22.522C59.3134 21.7547 57.9472 20.7205 56.7975 19.4673C54.8324 17.3916 53.5095 14.7939 52.9876 11.987C52.7903 10.7291 52.8433 9.44708 53.1415 8.21079C53.1559 8.15547 53.18 8.10015 53.2161 8.05445C53.2497 8.00875 53.2954 7.97026 53.3484 7.9438C53.4013 7.91735 53.459 7.90051 53.5167 7.8981C53.5744 7.8957 53.6346 7.90532 53.6875 7.92697C55.0416 8.31181 56.3285 8.9059 57.4974 9.69001C59.9075 11.352 61.81 13.6466 62.9934 16.3189C63.8857 18.2214 64.172 20.3477 63.8136 22.4162C61.7354 18.9213 59.2797 15.667 56.4896 12.7086C58.0626 16.3718 60.0542 19.845 62.4233 23.0536C64.8695 23.9676 67.3613 24.7589 69.8892 25.4203C70.0179 25.4545 70.1537 25.4724 70.3234 25.4948L70.3235 25.4948C70.452 25.5117 70.6 25.5312 70.7792 25.5622C68.9319 21.43 66.873 17.3964 64.6073 13.4759C63.2411 10.9191 59.8594 6.10139 59.8594 6.10139L64.6073 3.26079C64.6073 3.26079 66.4112 5.47362 67.1954 6.657C71.7829 14.043 75.7583 21.7785 79.087 29.786C79.9407 28.3 80.7447 26.7862 81.4977 25.2472C81.0527 21.4518 80.1627 17.7236 78.8519 14.1326C78.8062 18.1927 79.203 22.2455 80.0377 26.219C78.3588 24.9394 77.1153 23.1739 76.4755 21.1655C75.5302 18.3995 75.3619 15.4266 75.9896 12.5716C76.3047 11.203 76.8387 9.89216 77.5675 8.68953C77.5915 8.63662 77.6252 8.59092 77.6709 8.55243C77.7142 8.51395 77.7671 8.48509 77.8224 8.46825C77.8777 8.45141 77.9379 8.4466 77.9956 8.45382C78.0533 8.46104 78.1087 8.48028 78.1592 8.51155C79.2199 9.21628 80.1363 10.1207 80.853 11.1742C82.3828 13.589 83.1861 16.3887 83.1669 19.2462C83.1428 20.2347 83.0226 21.2185 82.8109 22.183C84.4946 17.6298 85.9065 12.9805 87.0369 8.2614L92.9707 6.22656V6.86636L92.7927 8.15557C91.3832 16.5932 88.4344 24.7013 84.0929 32.0781C85.221 31.1401 86.4861 30.3776 87.8427 29.8172C90.5919 28.6675 93.596 28.2586 96.5545 28.6338C97.8798 28.8287 99.1618 29.2544 100.34 29.8894C100.393 29.9134 100.441 29.9471 100.477 29.9928C100.516 30.0385 100.542 30.089 100.554 30.1467C100.566 30.2021 100.566 30.2622 100.552 30.3175C100.538 30.3728 100.511 30.4257 100.473 30.469C99.6741 31.5899 98.6976 32.5688 97.5767 33.3698C95.1113 35.063 92.2491 36.0877 89.2666 36.3402C87.049 36.5784 84.8073 36.2055 82.7869 35.2627C86.8998 34.4497 90.919 33.2134 94.7746 31.5706C90.8468 31.8496 86.9576 32.5496 83.1789 33.6536C82.6603 34.4925 82.1263 35.326 81.5768 36.1543C82.9725 39.961 84.2251 43.8227 85.3309 47.7314C89.9803 63.6252 92.9483 79.9641 94.1846 96.4761C94.3434 98.4171 94.4733 100.353 94.5767 102.287L94.6609 102.393C94.709 102.441 94.7667 102.482 94.8316 102.508C94.8942 102.535 94.9663 102.549 95.0337 102.549C95.101 102.549 95.1708 102.535 95.2357 102.508C95.3007 102.482 95.3584 102.443 95.4065 102.393C95.5267 100.428 95.6566 98.4628 95.8106 96.4737C97.0517 79.9617 100.02 63.6252 104.664 47.729C106.416 41.8461 108.466 36.0614 110.806 30.3974C109.794 28.9541 108.836 27.4951 107.929 26.0192C104.153 24.9152 100.271 24.2177 96.3453 23.9363C100.196 25.5815 104.211 26.8178 108.321 27.6283C106.303 28.5784 104.059 28.9536 101.841 28.7059C98.8588 28.4557 95.9966 27.4311 93.5336 25.7354C92.408 24.9393 91.4242 23.9579 90.6257 22.8347C90.5872 22.7914 90.5607 22.7385 90.5463 22.6832C90.5319 22.6278 90.5319 22.5701 90.5439 22.5124C90.5559 22.4547 90.5824 22.4041 90.6185 22.3584C90.6545 22.3127 90.7026 22.2791 90.7556 22.255C91.9365 21.6248 93.2185 21.2015 94.5414 20.9995C97.4999 20.6219 100.504 21.0308 103.253 22.1829C104.61 22.7505 105.877 23.513 107.015 24.4438C102.671 17.0693 99.7223 8.95882 98.3152 0.521219C98.2431 0.0954905 98.1252 -0.767993 98.1252 -0.767993V-1.34766L104.059 0.67756C105.185 5.39906 106.594 10.0484 108.285 14.5991C108.088 13.6442 107.992 12.6725 108.001 11.6984C107.977 8.84337 108.776 6.04126 110.303 3.62639C111.02 2.57289 111.934 1.66852 112.997 0.963785C113.047 0.932517 113.103 0.913274 113.16 0.906058C113.218 0.898842 113.278 0.903654 113.334 0.920491C113.389 0.937327 113.442 0.96619 113.485 1.00467C113.531 1.04075 113.567 1.08886 113.591 1.14177C114.32 2.34921 114.856 3.66247 115.181 5.03586C115.799 7.88849 115.628 10.8542 114.683 13.6178C114.048 15.6262 112.804 17.3916 111.123 18.6712C111.963 14.6977 112.362 10.6449 112.309 6.58484C111.008 10.1759 110.12 13.9064 109.663 17.6995ZM43.6793 53.0229C43.7831 53.0707 43.8763 53.1225 43.9616 53.1772C43.8676 53.1256 43.7734 53.0742 43.6793 53.0229ZM51.6286 64.7365C48.1939 66.4658 44.9589 68.5632 41.9788 70.9877L42.0247 70.9711C44.9926 68.5595 48.2126 66.4767 51.6303 64.7559L52.9568 65.6687L52.9707 65.6601L51.6286 64.7365ZM103.575 120.06L86.7309 116.214C86.5145 116.171 86.3196 116.055 86.1777 115.889C86.0358 115.721 85.954 115.512 85.9492 115.29V110.639C85.9588 110.49 85.9997 110.345 86.0719 110.213C86.144 110.081 86.2451 109.968 86.3677 109.881C86.4904 109.794 86.6299 109.734 86.7766 109.708C86.9233 109.681 87.0749 109.686 87.2216 109.727L103.933 113.539C104.195 113.59 104.434 113.727 104.609 113.929C104.782 114.131 104.883 114.386 104.895 114.653V119.139C104.886 119.29 104.845 119.437 104.77 119.569C104.698 119.702 104.597 119.817 104.474 119.904C104.352 119.993 104.21 120.053 104.063 120.079C103.914 120.106 103.76 120.101 103.616 120.062L103.575 120.06ZM86.7309 123.757L103.575 127.557L103.616 127.605C103.76 127.644 103.914 127.649 104.063 127.622C104.21 127.596 104.352 127.536 104.474 127.447C104.597 127.36 104.698 127.245 104.77 127.112C104.845 126.98 104.886 126.833 104.895 126.682V122.196C104.883 121.929 104.782 121.674 104.609 121.472C104.434 121.27 104.195 121.133 103.933 121.082L87.2216 117.27C87.0749 117.229 86.9233 117.224 86.7766 117.251C86.6299 117.277 86.4904 117.337 86.3677 117.424C86.2451 117.511 86.144 117.626 86.0719 117.756C85.9997 117.888 85.9588 118.033 85.9492 118.182V122.833C85.954 123.055 86.0358 123.264 86.1777 123.432C86.3196 123.598 86.5145 123.714 86.7309 123.757ZM103.098 140.003H189.535L184.905 145.271H136.167C136.167 145.981 136.625 146.172 137.032 146.342C137.12 146.379 137.205 146.414 137.283 146.454C151.21 151.719 165.718 155.298 180.501 157.107L176.833 162.22C159.301 159.257 142.262 153.898 126.197 146.3C125.142 145.603 123.9 145.244 122.635 145.271H106.017C105.661 145.194 105.293 145.189 104.935 145.261C104.577 145.333 104.24 145.477 103.939 145.684C122.623 169.999 169.627 175.384 169.627 175.384L163.241 179.954C157.057 178.755 150.939 177.26 144.908 175.476C147.512 179.322 150.53 182.876 153.908 186.072L149.16 189.114C144.379 184.558 140.507 179.158 137.73 173.202C133.795 171.873 129.9 170.418 126.053 168.84C125.452 168.366 124.725 168.082 123.963 168.022C123.805 168.558 124.032 168.988 124.252 169.403C124.309 169.512 124.366 169.619 124.415 169.727C129.048 178.336 134.459 186.506 140.581 194.136L134.397 195.521C127.203 185.782 121.103 175.283 116.213 164.212C115.886 163.161 115.203 162.256 114.279 161.655C109.377 158.242 104.815 154.366 100.659 150.082C104.624 157.033 109.092 163.69 114.029 169.998L109.281 173.04C105.228 167.64 101.51 162.003 98.1468 156.162C96.7328 178.198 115.196 202.766 115.196 202.766L107.682 201.782C103.304 194.302 99.4944 186.501 96.2882 178.451C96.1852 178.11 96.0392 177.759 95.9005 177.426C95.8319 177.261 95.7651 177.101 95.7062 176.948C95.5966 176.66 95.4993 176.363 95.3638 175.951C95.2822 175.702 95.1867 175.411 95.0664 175.055C94.9121 175.572 94.7729 176.046 94.6422 176.491C94.3713 177.413 94.1369 178.211 93.8806 179.009C90.4242 187.56 86.268 195.81 81.4527 203.677L76.3848 201.214C85.9695 187.394 91.463 171.191 92.2722 154.451C88.6603 160.897 84.6206 167.101 80.1776 173.021L75.4297 169.978C80.0487 164.083 84.2586 157.883 88.0315 151.42C84.1793 155.204 80.0105 158.656 75.567 161.739C74.7276 162.353 74.1383 163.247 73.905 164.26C68.8348 175.577 62.521 186.297 55.0792 196.221L50.3312 193.178C56.1399 185.765 61.3015 177.869 65.7608 169.576C65.8107 169.463 65.8691 169.352 65.9284 169.239C66.1494 168.817 66.382 168.374 66.2227 167.777C65.554 167.88 64.919 168.14 64.3706 168.534C59.9797 170.349 55.5268 172.003 51.021 173.495C48.2547 179.335 44.4316 184.632 39.7284 189.114L34.9805 186.072C38.2855 182.947 41.2444 179.48 43.8094 175.732C38.2813 177.331 32.6825 178.69 27.0292 179.803L22.1874 175.067C45.4726 172.421 67.3531 162.603 84.7863 146.978L85.5705 146.173C86.2728 145.497 86.1068 145.119 85.0846 145.119H80.5988C79.1768 145.119 77.7546 145.127 76.3318 145.135H76.3302H76.3286H76.327H76.3253H76.3237H76.3221H76.3205H76.3188H76.3172H76.3156H76.3152H76.3147H76.3143H76.3139H76.3134H76.313H76.3126H76.3121H76.3117H76.3112C73.4547 145.151 70.5961 145.167 67.7332 145.119C66.3886 145.124 65.0754 145.538 63.9713 146.302C47.8947 153.853 30.8535 159.159 13.3241 162.069L9.53824 156.955C24.3233 155.171 38.8365 151.613 52.7677 146.36C52.852 146.314 52.9442 146.273 53.0393 146.23C53.3838 146.076 53.7669 145.905 53.9535 145.413C53.2824 145.088 52.5248 144.992 51.7936 145.141H3.27017L1.65625 139.933C1.65625 139.933 58.4176 139.873 86.7971 139.933L91.0833 134.192C91.242 133.988 91.4585 133.836 91.7038 133.757C91.9492 133.677 92.2137 133.673 92.4615 133.742L98.3952 135.294C98.578 135.347 98.744 135.445 98.8811 135.577L103.098 140.003ZM102.691 140.003C102.691 139.927 102.776 139.946 102.887 140.003H102.691ZM86.8602 131.808L103.572 135.62L103.584 135.668C103.731 135.706 103.882 135.711 104.031 135.685C104.18 135.658 104.32 135.598 104.443 135.509C104.568 135.423 104.669 135.307 104.741 135.175C104.815 135.043 104.856 134.896 104.866 134.744V129.547C104.854 129.33 104.772 129.123 104.63 128.957C104.488 128.794 104.296 128.678 104.082 128.635L87.4639 124.847C87.2884 124.789 87.1008 124.775 86.9156 124.803C86.7327 124.832 86.5572 124.902 86.4056 125.01C86.2541 125.119 86.1314 125.263 86.0448 125.426C85.9583 125.592 85.9102 125.775 85.9102 125.96V130.696C85.9198 130.961 86.0184 131.213 86.1916 131.416C86.3647 131.618 86.6005 131.755 86.8602 131.808Z" fill="white" fill-opacity="0.15"/>
<path d="M118.176 135.222C120.193 133.641 122.249 132.055 124.341 130.469C127.416 128.137 130.464 125.881 133.482 123.698C135.571 123.271 140.488 125.814 140.133 128.216C139.993 129.169 139.141 129.931 137.185 131.391C133.291 134.3 131.143 135.903 129.542 137.096C127.963 136.788 126.196 136.54 124.264 136.422C120.384 136.183 116.998 136.536 114.3 137.037C114.245 137.447 114.834 137.258 115.119 137.269C123.988 137.615 137.654 137.14 143 145.786C144.073 147.523 144.053 148.723 143.895 150.78C143.558 155.192 141.348 158.039 137.308 159.688C129.08 163.048 113.619 159.778 97.9404 159.194C95.0562 159.086 92.7479 159.091 91.5237 159.102C93.6349 156.579 94.9949 154.319 95.8424 152.733C97.9404 148.802 98.2142 146.531 100.538 142.232C101.788 139.917 103.023 138.148 103.853 137.033C102.955 138.042 101.558 139.735 100.181 142.041C97.7236 146.154 97.5353 148.517 95.3781 152.348C93.6721 155.379 91.8697 157.312 90.4221 158.865C83.5039 166.289 74.0519 168.946 71.7502 169.594C50.7809 175.487 29.5708 163.558 30.0066 161.289C30.1073 160.764 31.0622 160.967 37.2862 159.222C39.5944 158.574 41.5545 157.961 43.0656 157.463C43.9963 157.971 45.3432 158.661 47.0229 159.342C50.0648 160.578 60.9732 165.098 71.5421 160.799C73.3839 160.05 79.8116 157.183 83.9857 150.753C87.2817 145.675 87.7109 140.627 93.2735 135.684C94.7561 134.368 96.1315 133.476 97.0425 132.938C97.3141 133.233 97.6404 133.546 98.0258 133.855C98.812 134.486 99.5873 134.891 100.211 135.152C98.6653 133.084 97.152 130.855 95.7044 128.455C86.7758 113.65 84.1149 98.5612 83.5193 87.2432C84.7413 86.6519 86.0575 86.065 87.4722 85.5022C89.3512 84.7532 91.1426 84.1488 92.8114 83.6582C93.9984 91.7437 96.8257 103.837 104.199 116.69C108.755 124.633 113.831 130.745 118.178 135.22L118.176 135.222Z" fill="#063D6A"/>
<path d="M95.9834 131.863C95.1468 132.397 93.6817 133.389 92.0523 134.848C84.5778 141.538 84.637 148.205 77.5129 154.059C77.1428 154.363 74.9572 156.137 71.9591 157.508C61.8303 162.14 50.8606 158.318 46.2266 156.36C47.3916 155.789 49.0298 154.935 50.911 153.772C50.911 153.772 55.8034 151.08 59.3031 147.399C63.3984 143.091 63.9349 138.343 67.3272 125.643C71.9788 108.226 75.1061 101.661 76.6741 98.5947C78.8094 94.4206 80.8921 91.1947 82.2718 89.1777C82.4798 95.8419 83.5814 105.34 87.657 115.896C90.1755 122.418 93.213 127.744 95.9856 131.865L95.9834 131.863Z" fill="#063D6A"/>
<path d="M98.2568 82.407C100.313 87.7659 103.261 94.0928 107.54 100.759C113.795 110.502 120.711 117.574 126.258 122.403C123.941 125.822 121.626 129.24 119.309 132.661C112.562 125.491 103.957 114.372 98.1736 98.9787C96.0997 93.4599 94.7069 88.2389 93.7695 83.5129C94.1966 83.2304 94.8142 82.8932 95.6091 82.6566C96.7063 82.3325 97.659 82.35 98.2568 82.4092V82.407Z" fill="#063D6A"/>
<path d="M110.628 79.0959C110.69 79.8909 110.906 80.9683 111.671 81.8268C113.083 83.4124 115.42 83.2087 117.424 83.4102C119.603 83.6292 122.599 84.4504 126.107 87.1266C126.055 91.2416 125.68 96.1647 124.614 101.638C123.683 106.407 122.426 110.575 121.147 114.066C117.621 110.943 113.46 106.683 109.485 101.105C104.439 94.0273 101.428 87.2624 99.6016 82.1115C99.8249 82.1203 101.06 82.1531 102.072 81.1939C102.979 80.3354 103.092 79.2623 103.112 79.0039C103.756 79.3499 104.978 79.8952 106.603 79.9653C108.513 80.0485 109.96 79.4331 110.628 79.0959Z" fill="#063D6A"/>
<path d="M139.98 125.131C138.966 123.961 137.792 123.493 137.21 123.269C135.931 122.779 134.783 122.737 134.067 122.772C131.864 116.259 129.661 109.744 127.456 103.231C127.208 102.534 126.958 101.838 126.711 101.142C127.418 100.793 128.272 100.283 129.131 99.5276C130.914 97.9595 131.776 96.1637 132.184 95.1016C133.55 98.7151 134.921 102.326 136.292 105.933C138.368 111.395 140.453 116.857 142.542 122.315C142.621 122.77 142.696 123.55 142.459 124.465C142.133 125.733 141.399 126.535 141.047 126.874C140.863 126.425 140.541 125.779 139.978 125.126L139.98 125.131Z" fill="#063D6A"/>
<path d="M130.668 89.5073C131.194 90.2584 131.347 90.9768 131.413 91.2987C132.052 94.461 129.286 97.8008 129.096 98.0264C128.575 98.6418 127.718 99.509 126.422 100.293C126.845 98.5125 127.219 96.4474 127.44 94.1391C127.666 91.7871 127.685 89.6518 127.607 87.7969C127.946 87.8056 128.535 87.8648 129.179 88.1823C130.02 88.5984 130.465 89.216 130.668 89.5051V89.5073Z" fill="#063D6A"/>
<path d="M121.581 59.5319C121.397 57.988 120.71 58.5048 120.438 58.2135C120.342 58.1084 120.256 56.0082 120.101 55.3775C118.738 49.8718 112.072 45.2969 106.488 46.0897C99.5935 47.0708 95.9888 50.531 94.6375 57.2499C94.5456 57.7054 94.6682 58.288 94.5894 58.5683C94.5324 58.7676 93.6564 58.4851 93.4265 60.2656C93.2754 61.4372 93.4571 65.1274 93.6871 66.2881C93.8929 67.3217 94.6967 68.132 95.7457 67.6305C96.5056 71.9821 101.28 77.5972 105.791 78.1338C112.462 78.9265 117.604 72.9807 119.468 67.1619C119.628 67.0546 120.282 67.8035 120.843 66.783C121.415 65.7427 121.732 60.8131 121.579 59.5297L121.581 59.5319ZM103.411 65.1514C102.476 65.1514 101.718 63.7893 101.718 62.1095C101.718 60.4298 102.476 59.0676 103.411 59.0676C104.149 59.0676 104.775 59.9173 105.005 61.0999C105.224 61.7898 105.231 62.6132 104.977 63.2593C104.725 64.3674 104.118 65.1493 103.411 65.1493V65.1514ZM111.38 65.1514C110.445 65.1514 109.687 63.7893 109.687 62.1095C109.687 60.4298 110.445 59.0676 111.38 59.0676C112.315 59.0676 113.073 60.4298 113.073 62.1095C113.073 63.7893 112.315 65.1514 111.38 65.1514Z" fill="#063D6A"/>
<ellipse cx="103.758" cy="61.8281" rx="2" ry="3.5" fill="#78BEF8"/>
<ellipse cx="111.758" cy="61.8281" rx="2" ry="3.5" fill="#78BEF8"/>
</g>
</g>
<defs>
<clipPath id="clip0_6191_24019">
<rect width="200" height="204" fill="white"/>
</clipPath>
<clipPath id="clip1_6191_24019">
<rect width="219" height="219" fill="white" transform="translate(-19)"/>
</clipPath>
</defs>
</svg>
